<mxfile host="app.diagrams.net" modified="2023-12-22T06:36:35.834Z" agent="Mozilla/5.0 (Windows NT 10.0; Win64; x64) AppleWebKit/537.36 (KHTML, like Gecko) Chrome/120.0.0.0 Safari/537.36 Edg/120.0.0.0" version="22.1.11" etag="guJhwbx9KJr2Km3yQwYz" type="github">
  <diagram name="第 1 页" id="TcxBOGNoxhNB3zUfLRoM">
    <mxGraphModel>
      <root>
        <mxCell id="0" />
        <mxCell id="1" parent="0" />
      </root>
    </mxGraphModel>
  </diagram>
</mxfile>
